<?xml version="1.0"?>
<svg version="1.1" width="100" height="100" xmlns="http://www.w3.org/2000/svg">
  <rect fill="black" width="100%" height="100%" />
  
  <!-- face -->
  <path fill="#666" d="M27 10 l-5 7 l0 7 l3 10 l4 0 l0 -10 l-2 -4 Z" />
  <path fill="#666" d="M32 5 l0 13 l3 7 l0 12 l13 0 l0 14 l-4 11 l-22 9 l5 5 l5 -4 l3 0 l-3 10 l5 9 l7 -3 l-6 -17 l12 3 l11 -3 l-3 15 l9 5 l5 -18 l-16 -14 l-5 -27 l3 0 l2 6 l8 -4 l0 -4 l11 -9 l-25 -5 Z" />

  <!-- right eye -->
  <path fill="#fff" d="M25 50 l8 6 l4 -1 l4 -4 Z" />

  <!-- left eve -->
  <path fill="#fff" d="M61 51 l5 5 l9 -6 Z" />
</svg>
