<?xml version="1.0"?>
<svg version="1.1" width="1000" height="1000" xmlns="http://www.w3.org/2000/svg">
  <rect fill="black" width="100%" height="100%" />
  <!-- rgba(255, 255, 255, 0.2) -->

  <!-- face -->
  <path fill="#666" d="M270 100 l-50 70 l0 70 l30 100 l40 0 l0 -100 l-20 -40 Z" />
  <path fill="#666" d="M320 50 l0 130 l30 70 l0 120 l130 0 l0 140 l-40 110 l-220 90 l50 50 l50 -40 l30 0 l-30 100 l50 90 l70 -30 l-60 -170 l120 30 l110 -30 l-30 150 l90 50 l50 -180 l-160 -140 l-50 -270 l30 0 l20 60 l80 -40 l0 -40 l110 -90 l-250 -50 Z" />

  <!-- right eye -->
  <path fill="#fff" d="M250 500 l80 60 l40 -10 l40 -40 Z" />

  <!-- left eve -->
  <path fill="#fff" d="M610 510 l50 50 l90 -60 Z" />
</svg>
